<svg version="1.1" id="图层_1" xmlns="http://www.w3.org/2000/svg" xmlns:xlink="http://www.w3.org/1999/xlink" x="0px" y="0px"
	 viewBox="0 0 300 300" style="enable-background:new 0 0 300 300;" xml:space="preserve">
<style type="text/css">
	.st0{fill:#808183;}
	.st1{fill:#A6A8AB;}
	.st2{fill:#003E87;}
</style>
<path class="st2" d="M232.1,143.09h-40.96v7.86h22.44c-1.12,21.66-9.54,40.62-22.78,55.32c-12.79,14.03-28.5,21.21-47.69,21.54
	c-3.82,0-7.63-0.34-11.22-0.9v8.3c3.59,0.45,7.29,0.68,11,0.68c49.26,0,89.32-39.95,89.32-89.21
	C232.21,145.45,232.1,144.21,232.1,143.09L232.1,143.09z M131.9,67.02c3.81-0.67,7.63-1.01,11.33-0.9
	c39.83-0.11,64.86,34.67,69.91,69.46h18.29c-5.5-43.76-43.09-77.98-88.53-77.98c-3.7,0-7.41,0.22-11,0.79V67.02L131.9,67.02z
	 M131.9,202.56v-14.92l11.22-11.22l12.45-12.57l4.15-4.04l-16.61-16.72l-7.41-7.41l7.41-7.41l24.24-24.24l16.61,16.72l-26.03,26.03
	l25.92,26.03l-40.73,40.73l-0.22,0.11L131.9,202.56L131.9,202.56z M131.9,102.36V91.25l11.22-11.22l18.63,18.4l-5.84,5.72
	l-12.9-12.9L131.9,102.36z M131.9,226.91c-14.59-2.47-27.38-9.87-36.92-20.31c-15.04-17.39-23-37.25-23-59.92
	c0-23.9,9.54-45,23.9-60.37c9.09-9.99,22.44-16.94,36.02-19.3v-8.64c-43.87,5.39-78.1,42.86-78.1,88.31
	c0,45.56,34.22,83.15,78.1,88.53V226.91L131.9,226.91z M131.9,91.25v11.11l-3.59,3.59v74.05l-9.54,9.43l-16.72-16.72v-51.73
	L131.9,91.25L131.9,91.25z M131.9,187.64v14.92l-7.52-7.52L131.9,187.64z"/>
</svg>
